<svg xmlns="http://www.w3.org/2000/svg" xmlns:xlink="http://www.w3.org/1999/xlink" xmlns:lucid="lucid" width="1080" height="420"><g transform="translate(-100 -680)" lucid:page-tab-id="0_0"><path d="M120 710c0-5.52 4.48-10 10-10h460c5.52 0 10 4.48 10 10v360c0 5.52-4.48 10-10 10H130c-5.52 0-10-4.48-10-10z" stroke="#000" stroke-width="2" fill="#d1bcd2" fill-opacity=".51"/><path d="M140 740c0-5.52 4.48-10 10-10h240c5.52 0 10 4.48 10 10v290c0 5.52-4.48 10-10 10H150c-5.52 0-10-4.48-10-10z" stroke="#000" stroke-width="2" fill="#fff" fill-opacity=".65"/><path d="M140 740h80v20h-80z" stroke="#000" stroke-opacity="0" stroke-width="2" fill="#fff" fill-opacity="0"/><use xlink:href="#a" transform="matrix(1,0,0,1,145,745) translate(13.396484375 14.396484375)"/><path d="M220 790c0-5.52 4.48-10 10-10h80c5.52 0 10 4.48 10 10v20c0 5.52-4.48 10-10 10h-80c-5.52 0-10-4.48-10-10z" stroke="#000" stroke-width="2" fill="#fff"/><use xlink:href="#b" transform="matrix(1,0,0,1,220,780) translate(28.396484375 25.396484375)"/><path d="M760 830c0-5.52 4.48-10 10-10h140c5.52 0 10 4.48 10 10v100c0 5.52-4.48 10-10 10H770c-5.52 0-10-4.48-10-10z" stroke="#000" stroke-width="2" fill="#99d5ca" fill-opacity=".65"/><path d="M790 854h100v46H790z" stroke="#000" stroke-opacity="0" stroke-width="2" fill="#fff" fill-opacity="0"/><use xlink:href="#c" transform="matrix(1,0,0,1,795,859) translate(28.79736328125 14.396484375)"/><use xlink:href="#d" transform="matrix(1,0,0,1,795,859) translate(7.19384765625 32.396484375)"/><path d="M1000 854.5c0-8.28 6.72-15 15-15h130c8.28 0 15 6.72 15 15v45c0 8.28-6.72 15-15 15h-130c-8.28 0-15-6.72-15-15z" stroke="#000" stroke-width="2" fill="#c1e4f7" fill-opacity=".65"/><path d="M1020 855h120v33h-120z" stroke="#000" stroke-opacity="0" stroke-width="2" fill="#fff" fill-opacity="0"/><use xlink:href="#e" transform="matrix(1,0,0,1,1025,860) translate(27.99560546875 14.396484375)"/><use xlink:href="#f" transform="matrix(1,0,0,1,1025,860) translate(-9.810546875 32.396484375)"/><path d="M220 910c0-5.52 4.48-10 10-10h80c5.52 0 10 4.48 10 10v20c0 5.52-4.48 10-10 10h-80c-5.52 0-10-4.48-10-10z" stroke="#000" stroke-width="2" fill="#fff"/><use xlink:href="#g" transform="matrix(1,0,0,1,220,900) translate(17.5947265625 25.396484375)"/><path d="M840 940l-.06 3.1-.2 2.98-.3 2.85-.4 2.74-.5 2.64-.6 2.56-.7 2.48-.77 2.4-.88 2.37-.98 2.3-1.06 2.27-1.16 2.22-1.27 2.18-1.37 2.16-1.5 2.14-1.6 2.13-1.74 2.1-1.9 2.1-2.04 2.1-2.22 2.08-2.4 2.08-2.63 2.08-2.85 2.07-3.12 2.08-3.4 2.07-3.74 2.05-4.1 2.03-4.5 2-4.98 1.97-5.47 1.9-6.04 1.83-6.66 1.7-7.35 1.56-8.07 1.35-8.83 1.12-9.62.8-10.38.43h-11.08l-11.68-.5-12.1-1-12.35-1.57-12.33-2.1-12.13-2.57-11.7-3-11.1-3.35-10.37-3.6-9.6-3.8-8.8-3.9-8-4-7.25-3.97-6.54-3.96-5.9-3.9-5.28-3.85-4.75-3.76-4.28-3.7-3.83-3.6-3.45-3.5-3.12-3.46-2.78-3.37-2.5-3.3-2.27-3.24-2.02-3.2-1.8-3.14-1.62-3.1-1.44-3.06-1.28-3.04-1.13-3.03-.97-3-.84-3-.7-3.02-.6-3.02-.44-3.04-.32-3.07-.2-3.12L528 901" stroke="#000" stroke-width="2" fill="none"/><path d="M841 940.1l-1.04-.1H841zM534.05 914.72l-9.22.94L528 901z"/><path d="M535.52 915.58l-11.96 1.22 3.63-16.8h1.45zm-9.42-1.05l6.48-.66-4.25-9.65z"/><path d="M220 850c0-5.52 4.48-10 10-10h80c5.52 0 10 4.48 10 10v20c0 5.52-4.48 10-10 10h-80c-5.52 0-10-4.48-10-10z" stroke="#000" stroke-width="2" fill="#c7e8ac"/><use xlink:href="#h" transform="matrix(1,0,0,1,220,840) translate(17.5947265625 25.396484375)"/><path d="M460 830c0-5.52 4.48-10 10-10h75c5.52 0 10 4.48 10 10v60c0 5.52-4.48 10-10 10h-75c-5.52 0-10-4.48-10-10z" stroke="#000" stroke-width="2" fill="#ff8f80" fill-opacity=".64"/><use xlink:href="#i" transform="matrix(1,0,0,1,460,820) translate(25.896484375 45.396484375)"/><path d="M320 860h139" stroke="#000" stroke-width="2" fill="none"/><path d="M320 861v-2zM459 860l-14.27 4.64v-9.28z"/><path d="M460 859.27v1.46L443.73 866v-12zm-14.27 4l10.03-3.27-10.03-3.26z"/><path d="M320 800l7.2.15 6.32.4 5.65.58 5.14.76 4.77.9 4.47 1.05 4.3 1.2 4.2 1.36 4.26 1.6 4.47 1.88 5.1 2.4 7.32 3.85 19.93 10.92 5.1 2.4 4.47 1.9 4.26 1.57 4.2 1.37 4.3 1.2 4.47 1.03 4.76.9 5.13.77 5.65.6 6.32.4 7.2.13" stroke="#000" stroke-width="2" fill="none"/><path d="M320.05 799l-.05 1.04V799zM459 839.33l-14.47 3.97.43-9.26z"/><path d="M460 838.64v1.46l-16.53 4.53.56-12zm-14.4 3.33l10.17-2.8-9.87-3.7z"/><path d="M507.5 820l.07-3.3.2-3.18.33-3.1.44-3.04.57-2.96.7-2.92.8-2.86.9-2.83 1.05-2.8 1.17-2.76 1.3-2.76 1.44-2.75 1.58-2.75 1.75-2.75 1.9-2.76 2.1-2.77 2.32-2.8 2.53-2.8 2.78-2.84 3.06-2.87 3.35-2.9 3.7-2.94 4.07-2.96 4.5-3 4.97-3 5.5-3 6.06-3.02 6.72-3 7.4-2.92 8.18-2.84 8.96-2.7 9.8-2.52 10.6-2.25 11.36-1.92 12.05-1.52 12.58-1.04 12.94-.54h13.05l12.92.54 12.58 1.06 12.05 1.52 11.37 1.92 10.6 2.25 9.78 2.52 8.96 2.7 8.17 2.84 7.4 2.94 6.73 2.98 6.07 3.02 5.5 3 4.96 3.02 4.5 3 4.06 2.95 3.7 2.93 3.36 2.9 3.05 2.86 2.78 2.84 2.54 2.8 2.3 2.8 2.1 2.78 1.92 2.75 1.74 2.75 1.6 2.75 1.42 2.75 1.3 2.76 1.17 2.78 1.04 2.8.9 2.82.8 2.87.7 2.92.56 2.97.45 3.02.33 3.1.2 3.2.07 3.28" stroke="#000" stroke-width="2" fill="none"/><path d="M507.54 820h-1.05v-.1zM840 820l-6.02-13.74 9.22-.9z"/><path d="M841.02 820h-2.1l-6.4-14.6 11.96-1.18zm-5.57-12.88l4.23 9.66 2.25-10.3z"/><path d="M921 860.67h78" stroke="#000" stroke-width="2" fill="none"/><path d="M921 861.67h-1v-2h1zM999 860.67l-14.27 4.63v-9.27z"/><path d="M1000 859.94v1.45l-16.27 5.28v-12.03zm-14.27 4l10.03-3.27-10.03-3.26z"/><path d="M999 898h-78" stroke="#000" stroke-width="2" fill="none"/><path d="M1000 899h-1v-2h1zM935.27 902.64L921 898l14.27-4.64z"/><path d="M936.27 904L920 898.74v-1.46l16.27-5.28zm-12.03-6l10.03 3.26v-6.52z"/><path d="M500 1040h80v20h-80z" stroke="#000" stroke-opacity="0" stroke-width="2" fill="#fff" fill-opacity="0"/><use xlink:href="#j" transform="matrix(1,0,0,1,505,1045) translate(2.5947265625 14.396484375)"/><path d="M485.33 901l-.05 2.65-.15 2.36-.22 2.13-.27 1.9-.33 1.74-.38 1.6-.4 1.46-.44 1.35-.47 1.26-.5 1.18-.5 1.1-.55 1.05-.57 1-.6.93-.62.9-.65.85-.67.82-.7.78-.75.76-.78.75-.82.7-.87.7-.92.67-.98.65-1.04.63-1.12.62-1.2.6-1.32.58-1.42.56-1.55.54-1.72.52-1.9.5-2.14.44-2.43.4-2.78.36-3.23.27-3.82.14h-4.63l-5.82-.25-7.7-.67-11.44-1.46-77.35-12.94-9.24-.8-7.2-.3L320 920" stroke="#000" stroke-width="2" fill="none"/><path d="M486.32 901.14l-1.98-.28.13-.86h2.02zM334.02 925.33L320 920l14.48-3.93z"/><path d="M334.95 926.76l-14.95-5.7v-2.1l15.54-4.2zm-11.72-6.6l9.86 3.75.3-6.5z"/><defs><path d="M648-963c-190 6-283 138-283 336V0H185v-1484h181c-2 197 6 404-9 587h3c62-120 159-205 339-205 242 0 351 135 350 381V0H868v-695c1-168-57-273-220-268" id="k"/><path d="M682 16c-209 0-323-80-324-285v-671H190v-142h170l58-282h120v282h432v142H538v652c2 114 60 155 182 155 106 0 209-16 297-34v137C921-4 806 16 682 16" id="l"/><path d="M904-1102c199 0 220 177 220 381V0H956v-686c-3-114 0-215-60-264-70-33-125-4-158 71-26 56-39 140-39 252V0H531v-686c-3-114-1-215-61-264-78-41-136 24-157 84-24 69-39 159-39 259V0H105c-3-360 6-732-6-1082h149c6 50 3 123 8 175 36-100 83-195 216-195 135 0 166 79 196 196 42-105 93-196 236-196" id="m"/><path d="M736-142h380V0H134v-142h422v-1200H267v-142h469v1342" id="n"/><g id="a"><use transform="matrix(0.0087890625,0,0,0.0087890625,0,0)" xlink:href="#k"/><use transform="matrix(0.0087890625,0,0,0.0087890625,10.8017578125,0)" xlink:href="#l"/><use transform="matrix(0.0087890625,0,0,0.0087890625,21.603515625,0)" xlink:href="#m"/><use transform="matrix(0.0087890625,0,0,0.0087890625,32.4052734375,0)" xlink:href="#n"/></g><path d="M839-1335c-182-6-269 67-259 253h491v142H580V0H400v-940H138v-142h262c-15-293 132-408 418-402 94 2 200 7 281 21v145c-75-10-177-14-260-17" id="o"/><path d="M615-1102c343 0 484 203 482 560-1 347-147 562-488 562-336 0-475-219-479-562-4-349 156-560 485-560zm-8 989c240 0 301-180 301-429 0-245-55-427-290-427-236 0-299 181-299 427 0 243 61 429 288 429" id="p"/><path d="M839-1102c70 0 148 7 206 17v167c-112-18-268-36-363 15-129 69-208 203-208 395V0H294c-10-367 32-789-52-1082h171c21 75 41 161 48 250h5c67-152 152-270 373-270" id="q"/><g id="b"><use transform="matrix(0.0087890625,0,0,0.0087890625,0,0)" xlink:href="#o"/><use transform="matrix(0.0087890625,0,0,0.0087890625,10.8017578125,0)" xlink:href="#p"/><use transform="matrix(0.0087890625,0,0,0.0087890625,21.603515625,0)" xlink:href="#q"/><use transform="matrix(0.0087890625,0,0,0.0087890625,32.4052734375,0)" xlink:href="#m"/></g><path d="M1034 0L896-382H333L196 0H0l510-1349h217L1228 0h-194zM847-531c-77-225-157-447-231-674-69 231-154 451-232 674h463" id="r"/><path d="M622-1349c296 4 497 117 497 404 0 282-193 424-485 431H353V0H162v-1349h460zm-15 684c195-3 320-88 320-277 0-184-129-255-328-254H353v531h254" id="s"/><path d="M202-1349h823v156H709v1037h316V0H202v-156h316v-1037H202v-156" id="t"/><g id="c"><use transform="matrix(0.0087890625,0,0,0.0087890625,0,0)" xlink:href="#r"/><use transform="matrix(0.0087890625,0,0,0.0087890625,10.8017578125,0)" xlink:href="#s"/><use transform="matrix(0.0087890625,0,0,0.0087890625,21.603515625,0)" xlink:href="#t"/></g><path d="M891-1484c-201 251-362 514-362 954 0 441 161 704 362 955H701C500 176 342-90 342-532c0-440 159-704 359-952h190" id="u"/><path d="M1000-272c3 95 12 159 101 161 21 0 41-3 59-7V-6c-44 10-86 16-139 16-141 2-191-84-197-217h-6C748-76 648 20 446 20c-207 0-318-120-318-322 0-266 194-348 454-354l236-4c12-191-40-305-222-305-140 0-220 47-232 172l-188-17c33-204 181-292 423-292 255 0 401 118 401 364v466zm-683-27c0 109 63 184 175 182 166-3 259-96 306-217 24-65 20-120 20-200-232 7-501-28-501 235" id="v"/><path d="M873-819c-18-114-119-146-250-146-163 0-245 50-245 151 0 151 170 148 294 185 182 54 388 94 388 320 0 240-189 325-439 329-245 4-410-69-454-268l159-31c24 133 136 168 295 165 144-2 270-31 270-171 0-164-195-160-331-202-167-52-350-87-350-299 0-218 173-315 413-313 220 2 373 77 412 260" id="w"/><path d="M914 0L548-499l-132 98V0H236v-1484h180v927l475-525h211L663-617 1125 0H914" id="x"/><path d="M528-1484c201 248 357 511 357 952 0 442-156 709-357 957H336C537 174 700-89 700-530c0-440-163-703-364-954h192" id="y"/><g id="d"><use transform="matrix(0.0087890625,0,0,0.0087890625,0,0)" xlink:href="#u"/><use transform="matrix(0.0087890625,0,0,0.0087890625,10.8017578125,0)" xlink:href="#o"/><use transform="matrix(0.0087890625,0,0,0.0087890625,21.603515625,0)" xlink:href="#n"/><use transform="matrix(0.0087890625,0,0,0.0087890625,32.4052734375,0)" xlink:href="#v"/><use transform="matrix(0.0087890625,0,0,0.0087890625,43.20703125,0)" xlink:href="#w"/><use transform="matrix(0.0087890625,0,0,0.0087890625,54.0087890625,0)" xlink:href="#x"/><use transform="matrix(0.0087890625,0,0,0.0087890625,64.810546875,0)" xlink:href="#y"/></g><path d="M865-914c-3-187-2-380-2-570h180v1261c0 76 1 155 6 223H877c-8-49-9-116-10-174h-5C801-44 708 26 530 26c-135 0-234-46-297-139s-95-232-95-419c0-377 131-566 392-566 176 0 271 63 335 184zm-286-51c-222 0-255 197-255 427 0 229 31 425 253 425 237 0 286-195 286-441 0-238-52-411-284-411" id="z"/><path d="M617-1102c355 0 481 238 477 599H322c5 222 84 388 301 388 144 0 244-59 284-166l158 45C1002-72 854 20 623 20c-342 0-490-220-490-568 0-346 151-554 484-554zm291 461c-18-192-90-328-289-328-194 0-287 128-295 328h584" id="A"/><g id="e"><use transform="matrix(0.0087890625,0,0,0.0087890625,0,0)" xlink:href="#m"/><use transform="matrix(0.0087890625,0,0,0.0087890625,10.8017578125,0)" xlink:href="#p"/><use transform="matrix(0.0087890625,0,0,0.0087890625,21.603515625,0)" xlink:href="#z"/><use transform="matrix(0.0087890625,0,0,0.0087890625,32.4052734375,0)" xlink:href="#A"/><use transform="matrix(0.0087890625,0,0,0.0087890625,43.20703125,0)" xlink:href="#n"/></g><path d="M706-1102c241 0 344 136 343 381V0H868v-695c1-168-57-273-220-268-190 6-283 138-283 336V0H185c-3-360 6-732-6-1082h170c4 54 7 126 8 185h3c63-121 164-204 346-205" id="B"/><path d="M1018 0H814c-67-224-138-444-200-673C552-442 476-224 407 0H204L21-1082h178c43 310 105 601 126 933 54-225 128-425 193-638h193c63 212 134 415 185 638 22-336 90-622 136-933h176" id="C"/><g id="f"><use transform="matrix(0.0087890625,0,0,0.0087890625,0,0)" xlink:href="#u"/><use transform="matrix(0.0087890625,0,0,0.0087890625,10.8017578125,0)" xlink:href="#l"/><use transform="matrix(0.0087890625,0,0,0.0087890625,21.603515625,0)" xlink:href="#A"/><use transform="matrix(0.0087890625,0,0,0.0087890625,32.4052734375,0)" xlink:href="#B"/><use transform="matrix(0.0087890625,0,0,0.0087890625,43.20703125,0)" xlink:href="#w"/><use transform="matrix(0.0087890625,0,0,0.0087890625,54.0087890625,0)" xlink:href="#p"/><use transform="matrix(0.0087890625,0,0,0.0087890625,64.810546875,0)" xlink:href="#q"/><use transform="matrix(0.0087890625,0,0,0.0087890625,75.6123046875,0)" xlink:href="#o"/><use transform="matrix(0.0087890625,0,0,0.0087890625,86.4140625,0)" xlink:href="#n"/><use transform="matrix(0.0087890625,0,0,0.0087890625,97.2158203125,0)" xlink:href="#p"/><use transform="matrix(0.0087890625,0,0,0.0087890625,108.017578125,0)" xlink:href="#C"/><use transform="matrix(0.0087890625,0,0,0.0087890625,118.8193359375,0)" xlink:href="#y"/></g><path d="M528 20c-247 0-343-132-343-381v-721h180v686c-4 177 45 284 224 277 194-8 279-136 279-336v-627h181c3 360-6 732 6 1082H885c-4-54-7-126-8-185h-3C809-64 714 20 528 20" id="D"/><path d="M698-1104c312 3 392 244 392 558 0 315-82 566-392 566-169 0-277-65-331-184h-5c8 188 2 394 4 589H185V-858c0-76-1-156-6-224h175c6 52 9 120 10 178h4c58-122 150-202 330-200zm-49 991c225 0 255-203 255-433 0-225-32-419-253-419-236 0-285 192-285 441 0 237 53 411 283 411" id="E"/><g id="g"><use transform="matrix(0.0087890625,0,0,0.0087890625,0,0)" xlink:href="#p"/><use transform="matrix(0.0087890625,0,0,0.0087890625,10.8017578125,0)" xlink:href="#D"/><use transform="matrix(0.0087890625,0,0,0.0087890625,21.603515625,0)" xlink:href="#l"/><use transform="matrix(0.0087890625,0,0,0.0087890625,32.4052734375,0)" xlink:href="#E"/><use transform="matrix(0.0087890625,0,0,0.0087890625,43.20703125,0)" xlink:href="#D"/><use transform="matrix(0.0087890625,0,0,0.0087890625,54.0087890625,0)" xlink:href="#l"/></g><path d="M365-904c58-129 161-200 334-200 130 0 228 46 293 138s98 233 98 420c0 189-34 331-102 425S824 20 698 20c-170 0-275-64-336-184 0 55-3 116-9 164H179c5-68 6-147 6-223v-1261h180c-2 193 4 394-4 580h4zm283 791c221 0 256-197 256-427 0-229-34-425-254-425-236 0-285 195-285 441 0 237 53 411 283 411" id="F"/><g id="h"><use transform="matrix(0.0087890625,0,0,0.0087890625,0,0)" xlink:href="#F"/><use transform="matrix(0.0087890625,0,0,0.0087890625,10.8017578125,0)" xlink:href="#D"/><use transform="matrix(0.0087890625,0,0,0.0087890625,21.603515625,0)" xlink:href="#l"/><use transform="matrix(0.0087890625,0,0,0.0087890625,32.4052734375,0)" xlink:href="#l"/><use transform="matrix(0.0087890625,0,0,0.0087890625,43.20703125,0)" xlink:href="#p"/><use transform="matrix(0.0087890625,0,0,0.0087890625,54.0087890625,0)" xlink:href="#B"/></g><path d="M390 276c167 0 266-82 266-251v-965H249v-142h587V28c-4 270-165 397-431 397-107 0-208-16-288-43V242c80 18 173 34 273 34zm246-1568v-192h200v192H636" id="G"/><path d="M932 0L611-444 288 0H94l415-556-397-526h199l300 421 298-421h201L713-558 1133 0H932" id="H"/><g id="i"><use transform="matrix(0.0087890625,0,0,0.0087890625,0,0)" xlink:href="#r"/><use transform="matrix(0.0087890625,0,0,0.0087890625,10.8017578125,0)" xlink:href="#G"/><use transform="matrix(0.0087890625,0,0,0.0087890625,21.603515625,0)" xlink:href="#v"/><use transform="matrix(0.0087890625,0,0,0.0087890625,32.4052734375,0)" xlink:href="#H"/></g><path d="M631 20c-350 0-501-215-501-562 0-355 162-560 502-560 250 0 399 118 446 323l-192 14c-23-124-109-196-262-196-242 0-305 171-305 415 1 245 61 427 304 427 151 0 248-77 267-215l190 12C1039-107 883 20 631 20" id="I"/><path d="M745-142h380V0H143v-142h422v-798H246v-142h499v940zM545-1292v-192h200v192H545" id="J"/><g id="j"><use transform="matrix(0.0087890625,0,0,0.0087890625,0,0)" xlink:href="#I"/><use transform="matrix(0.0087890625,0,0,0.0087890625,10.8017578125,0)" xlink:href="#n"/><use transform="matrix(0.0087890625,0,0,0.0087890625,21.603515625,0)" xlink:href="#J"/><use transform="matrix(0.0087890625,0,0,0.0087890625,32.4052734375,0)" xlink:href="#A"/><use transform="matrix(0.0087890625,0,0,0.0087890625,43.20703125,0)" xlink:href="#B"/><use transform="matrix(0.0087890625,0,0,0.0087890625,54.0087890625,0)" xlink:href="#l"/></g></defs></g></svg>