<svg xmlns="http://www.w3.org/2000/svg" xmlns:xlink="http://www.w3.org/1999/xlink" xmlns:lucid="lucid" width="1120" height="670"><g transform="translate(-180 -540)" lucid:page-tab-id="0_0"><path d="M200 821c0-11.05 8.95-20 20-20h60c11.05 0 20 8.95 20 20v234c0 11.05-8.95 20-20 20h-60c-11.05 0-20-8.95-20-20zM382.67 840c0-11.05 8.95-20 20-20H1160c11.05 0 20 8.95 20 20v80c0 11.05-8.95 20-20 20H402.67c-11.05 0-20-8.95-20-20z" stroke="#000" stroke-opacity="0" stroke-width=".5" fill="#d1bcd2" fill-opacity=".3"/><path d="M403 1159.9c0-5.53 4.48-10 10-10h73c5.52 0 10 4.47 10 10v19.1c0 5.52-4.48 10-10 10h-73c-5.52 0-10-4.48-10-10z" stroke="#000" stroke-width="2" fill="#fff" fill-opacity="0"/><use xlink:href="#a" transform="matrix(1,0,0,1,408,1154.8888888888887) translate(4.827365451388886 22.32855902777778)"/><path d="M850 1159c0-5.52 4.48-10 10-10h60c5.52 0 10 4.48 10 10v20c0 5.52-4.48 10-10 10h-60c-5.52 0-10-4.48-10-10z" stroke="#000" stroke-width="2" fill="#fff" fill-opacity="0"/><use xlink:href="#b" transform="matrix(1,0,0,1,855,1154) translate(20.330946180555554 22.32855902777778)"/><path d="M602 1159c0-5.52 4.48-10 10-10h122c5.52 0 10 4.48 10 10v20c0 5.52-4.48 10-10 10H612c-5.52 0-10-4.48-10-10z" stroke="#000" stroke-width="2" fill="#fff" fill-opacity="0"/><use xlink:href="#c" transform="matrix(1,0,0,1,607,1154) translate(14.658311631944443 22.32855902777778)"/><path d="M467.3 985.38c0-2.97-2.57-5.38-5.72-5.38h-17.16c-3.15 0-5.7 2.4-5.7 5.38v109.24c0 2.97 2.55 5.38 5.7 5.38h17.16c3.15 0 5.7-2.4 5.7-5.38z" stroke="#000" stroke-width="3" fill="#fff" fill-opacity=".6"/><path d="M462.53 998.5c0 4.95-4.26 8.96-9.53 8.96s-9.53-4-9.53-8.96c0-4.94 4.26-8.95 9.53-8.95s9.53 4 9.53 8.95z" stroke="#000" stroke-width="3"/><path d="M462.53 1025.37c0 4.95-4.26 8.95-9.53 8.95s-9.53-4-9.53-8.95c0-4.94 4.26-8.95 9.53-8.95s9.53 4 9.53 8.95z" stroke="#000" stroke-width="3" fill="#ccc"/><path d="M462.53 1052.24c0 4.94-4.26 8.95-9.53 8.95s-9.53-4.02-9.53-8.96c0-4.94 4.26-8.95 9.53-8.95s9.53 4 9.53 8.94z" stroke="#000" stroke-width="3" fill="#666"/><path d="M462.53 1079.1c0 4.95-4.26 8.96-9.53 8.96s-9.53-4-9.53-8.95c0-4.94 4.26-8.96 9.53-8.96s9.53 4.02 9.53 8.97z" stroke="#000" stroke-width="3" fill="#fff"/><path d="M687.3 985.38c0-2.97-2.57-5.38-5.72-5.38h-17.16c-3.15 0-5.7 2.4-5.7 5.38v109.24c0 2.97 2.55 5.38 5.7 5.38h17.16c3.15 0 5.7-2.4 5.7-5.38z" stroke="#000" stroke-width="3" fill="#666" fill-opacity=".6"/><path d="M682.53 998.5c0 4.95-4.26 8.96-9.53 8.96s-9.53-4-9.53-8.96c0-4.94 4.26-8.95 9.53-8.95s9.53 4 9.53 8.95z" stroke="#000" stroke-width="3"/><path d="M682.53 1025.37c0 4.95-4.26 8.95-9.53 8.95s-9.53-4-9.53-8.95c0-4.94 4.26-8.95 9.53-8.95s9.53 4 9.53 8.95z" stroke="#000" stroke-width="3" fill="#ccc"/><path d="M682.53 1052.24c0 4.94-4.26 8.95-9.53 8.95s-9.53-4.02-9.53-8.96c0-4.94 4.26-8.95 9.53-8.95s9.53 4 9.53 8.94z" stroke="#000" stroke-width="3" fill="#666"/><path d="M682.53 1079.1c0 4.95-4.26 8.96-9.53 8.96s-9.53-4-9.53-8.95c0-4.94 4.26-8.96 9.53-8.96s9.53 4.02 9.53 8.97z" stroke="#000" stroke-width="3" fill="#fff"/><path d="M906.67 985.38c0-2.97-2.45-5.38-5.47-5.38h-16.4c-3.02 0-5.47 2.4-5.47 5.38v109.24c0 2.97 2.45 5.38 5.47 5.38h16.4c3.02 0 5.47-2.4 5.47-5.38z" stroke="#000" stroke-width="3" fill="#ccc" fill-opacity=".6"/><path d="M902.1 998.5c0 4.95-4.07 8.96-9.1 8.96-5.03 0-9.1-4-9.1-8.96 0-4.94 4.07-8.95 9.1-8.95 5.03 0 9.1 4 9.1 8.95z" stroke="#000" stroke-width="3"/><path d="M902.1 1025.37c0 4.95-4.07 8.95-9.1 8.95-5.03 0-9.1-4-9.1-8.95 0-4.94 4.07-8.95 9.1-8.95 5.03 0 9.1 4 9.1 8.95z" stroke="#000" stroke-width="3" fill="#ccc"/><path d="M902.1 1052.24c0 4.94-4.07 8.95-9.1 8.95-5.03 0-9.1-4.02-9.1-8.96 0-4.94 4.07-8.95 9.1-8.95 5.03 0 9.1 4 9.1 8.94z" stroke="#000" stroke-width="3" fill="#666"/><path d="M902.1 1079.1c0 4.95-4.07 8.96-9.1 8.96-5.03 0-9.1-4-9.1-8.95 0-4.94 4.07-8.96 9.1-8.96 5.03 0 9.1 4.02 9.1 8.97z" stroke="#000" stroke-width="3" fill="#fff"/><path d="M402.67 855c0-8.28 6.7-15 15-15h70c8.28 0 15 6.72 15 15v50c0 8.28-6.72 15-15 15h-70c-8.3 0-15-6.72-15-15z" stroke="#000" stroke-width="3" fill="#fff" fill-opacity=".48"/><use xlink:href="#d" transform="matrix(1,0,0,1,402.6657266760665,840) translate(17.994791666666664 47.994791666666664)"/><path d="M622.67 855c0-8.28 6.7-15 15-15h70c8.28 0 15 6.72 15 15v50c0 8.28-6.72 15-15 15h-70c-8.3 0-15-6.72-15-15z" stroke="#000" stroke-width="3" fill="#fff" fill-opacity=".48"/><use xlink:href="#d" transform="matrix(1,0,0,1,622.6657266760665,840) translate(17.994791666666664 47.994791666666664)"/><path d="M842.67 855c0-8.28 6.7-15 15-15h70c8.28 0 15 6.72 15 15v50c0 8.28-6.72 15-15 15h-70c-8.3 0-15-6.72-15-15z" stroke="#000" stroke-width="3" fill="#fff" fill-opacity=".48"/><use xlink:href="#d" transform="matrix(1,0,0,1,842.6657266760665,840) translate(17.994791666666664 47.994791666666664)"/><path d="M502.67 880h118.5" stroke="#000" stroke-width="3" fill="none"/><path d="M502.67 881.5v-3zM621.17 880l-14.27 4.64v-9.28z"/><path d="M622.67 878.9v2.2l-17.27 5.6v-13.4zm-14.27 3.67l7.9-2.57-7.9-2.57z"/><path d="M722.67 880h120" stroke="#000" stroke-width="3" fill="none"/><path d="M722.67 881.5v-3zM842.67 880l-14.27 4.64v-9.28z"/><path d="M842.67 878.42v3.16l-15.77 5.12v-13.4zm-12.77 4.15l7.9-2.57-7.9-2.57z"/><path d="M453 980l-.33-58.5" stroke="#000" stroke-width="3" fill="none"/><path d="M454.5 980h-1.65 1.65zM457.38 935.74l-9.27.05 4.57-14.3z"/><path d="M459.46 937.23l-13.4.07 5.5-17.3h2.2zm-9.3-2.95l5.15-.03-2.6-7.9z"/><path d="M673 980l-.33-58.5" stroke="#000" stroke-width="3" fill="none"/><path d="M674.5 980h-1.65 1.65zM677.38 935.74l-9.27.05 4.57-14.3z"/><path d="M679.46 937.23l-13.4.07 5.5-17.3h2.2zm-9.3-2.95l5.15-.03-2.6-7.9z"/><path d="M893 980l-.33-58.5" stroke="#000" stroke-width="3" fill="none"/><path d="M894.5 980h-1.65 1.65zM897.38 935.74l-9.27.05 4.57-14.3z"/><path d="M899.46 937.23l-13.4.07 5.5-17.3h2.2zm-9.3-2.95l5.15-.03-2.6-7.9z"/><path d="M200 1074V801h43.13v273z" stroke="#000" stroke-opacity="0" stroke-width="2" fill="#fff" fill-opacity="0"/><use xlink:href="#e" transform="matrix(6.123233995736766e-17,-1,1,6.123233995736766e-17,205,1069) translate(1.87890625 22.396484375)"/><use xlink:href="#f" transform="matrix(6.123233995736766e-17,-1,1,6.123233995736766e-17,205,1069) translate(99.0947265625 22.396484375)"/><path d="M257.5 1000h17v24.63h-17z" fill="#fff" fill-opacity="0"/><path d="M273.3 1019.74l.43.45c-2.07 2.94-3.23 3.85-4.96 3.85-.9 0-1.5-.54-1.5-1.42 0-.4.25-1.46.7-3.12l1.85-7.02c.14-.54.24-.98.24-1.1 0-.52-.17-.86-.95-.86-1.2 0-3.38 2.07-5.14 4.75-1.36 2.07-1.9 3.25-3.26 8.48h-2.54l4.95-18.8c.28-1.05.45-1.62.45-2.1 0-.58-.78-.85-1.4-.85h-.9v-.5c2.03-.24 3.35-.48 5.32-.92l.24.2-4.1 15.16c3.05-4.95 5.7-7.15 7.8-7.15 1.56 0 2.2 1 2.2 2.26 0 .85-.6 3.36-1.62 6.55-.58 1.77-1.12 3.87-1.12 4.25 0 .34.24.6.54.6.55 0 .95-.4 2.8-2.7"/><path d="M280.58 825.38c0-2.97-2.55-5.38-5.7-5.38H257.7c-3.16 0-5.72 2.4-5.72 5.38v109.24c0 2.97 2.56 5.38 5.72 5.38h17.15c3.16 0 5.7-2.4 5.7-5.38z" stroke="#000" stroke-width="3" fill="#fff" fill-opacity=".6"/><path d="M275.82 838.5c0 4.95-4.26 8.96-9.53 8.96s-9.54-4-9.54-8.96c0-4.94 4.27-8.95 9.53-8.95s9.52 4 9.52 8.95z" stroke="#000" stroke-width="3"/><path d="M275.82 865.37c0 4.95-4.26 8.95-9.53 8.95s-9.54-4-9.54-8.95c0-4.94 4.27-8.95 9.53-8.95s9.52 4 9.52 8.95z" stroke="#000" stroke-width="3" fill="#ccc"/><path d="M275.82 892.24c0 4.94-4.26 8.95-9.53 8.95s-9.54-4.02-9.54-8.96c0-4.94 4.27-8.95 9.53-8.95s9.52 4 9.52 8.94z" stroke="#000" stroke-width="3" fill="#666"/><path d="M275.82 919.1c0 4.95-4.26 8.96-9.53 8.96s-9.54-4-9.54-8.95c0-4.94 4.27-8.96 9.53-8.96s9.52 4.02 9.52 8.97z" stroke="#000" stroke-width="3" fill="#fff"/><path d="M280.6 880h120.57" stroke="#000" stroke-width="3" fill="none"/><path d="M280.6 881.5h-.02v-3zM401.17 880l-14.27 4.64v-9.28z"/><path d="M402.67 878.9v2.2l-17.27 5.6v-13.4zm-14.27 3.67l7.9-2.57-7.9-2.57z"/><path d="M452.67 840l.33-60" stroke="#000" stroke-width="3" fill="none"/><path d="M452.83 840h-1.66zM457.56 794.3l-9.27-.06L453 780z"/><path d="M459.6 795.8l-13.4-.07 5.22-15.73h3.15zm-9.24-3.05l5.14.03-2.53-7.93z"/><path d="M403 760c0-11.05 8.95-20 20-20h60c11.05 0 20 8.95 20 20s-8.95 20-20 20h-60c-11.05 0-20-8.95-20-20z" stroke="#000" stroke-width="3" fill="#d1bcd2"/><use xlink:href="#g" transform="matrix(1,0,0,1,403,740) translate(12.19384765625 25.396484375)"/><path d="M467.58 565.38c0-2.97-2.55-5.38-5.7-5.38H444.7c-3.16 0-5.72 2.4-5.72 5.38v109.24c0 2.97 2.56 5.38 5.72 5.38h17.15c3.16 0 5.7-2.4 5.7-5.38z" stroke="#000" stroke-width="3" fill="#666" fill-opacity=".6"/><path d="M462.82 578.5c0 4.95-4.26 8.96-9.53 8.96s-9.54-4-9.54-8.96c0-4.94 4.27-8.95 9.53-8.95s9.52 4 9.52 8.95z" stroke="#000" stroke-width="3"/><path d="M462.82 605.37c0 4.95-4.26 8.95-9.53 8.95s-9.54-4-9.54-8.95c0-4.94 4.27-8.95 9.53-8.95s9.52 4 9.52 8.95z" stroke="#000" stroke-width="3" fill="#ccc"/><path d="M462.82 632.24c0 4.94-4.26 8.95-9.53 8.95s-9.54-4.02-9.54-8.96c0-4.94 4.27-8.95 9.53-8.95s9.52 4 9.52 8.94z" stroke="#000" stroke-width="3" fill="#666"/><path d="M462.82 659.1c0 4.95-4.26 8.96-9.53 8.96s-9.54-4-9.54-8.95c0-4.94 4.27-8.96 9.53-8.96s9.52 4.02 9.52 8.97z" stroke="#000" stroke-width="3" fill="#fff"/><path d="M453 740v-58.5" stroke="#000" stroke-width="3" fill="none"/><path d="M454.5 740h-3 3zM457.64 695.77h-9.28L453 681.5z"/><path d="M459.7 697.27h-13.4l5.6-17.27h2.2zm-9.27-3h5.14l-2.57-7.92z"/><path d="M623 760c0-11.05 8.95-20 20-20h54c11.05 0 20 8.95 20 20s-8.95 20-20 20h-54c-11.05 0-20-8.95-20-20z" stroke="#000" stroke-width="3" fill="#d1bcd2"/><use xlink:href="#g" transform="matrix(1,0,0,1,623,740) translate(9.19384765625 25.396484375)"/><path d="M843 760c0-11.05 8.95-20 20-20h54c11.05 0 20 8.95 20 20s-8.95 20-20 20h-54c-11.05 0-20-8.95-20-20z" stroke="#000" stroke-width="3" fill="#d1bcd2"/><use xlink:href="#g" transform="matrix(1,0,0,1,843,740) translate(9.19384765625 25.396484375)"/><path d="M672.67 840v-58.5" stroke="#000" stroke-width="3" fill="none"/><path d="M674.17 840h-3 3zM677.3 795.77h-9.27l4.64-14.27z"/><path d="M679.37 797.27h-13.4l5.6-17.27h2.2zm-9.27-3h5.14l-2.57-7.92z"/><path d="M892.67 840v-58.5" stroke="#000" stroke-width="3" fill="none"/><path d="M894.17 840h-3 3zM897.3 795.77h-9.27l4.64-14.27z"/><path d="M899.37 797.27h-13.4l5.6-17.27h2.2zm-9.27-3h5.14l-2.57-7.92z"/><path d="M687 565.38c0-2.97-2.56-5.38-5.72-5.38h-17.15c-3.16 0-5.7 2.4-5.7 5.38v109.24c0 2.97 2.54 5.38 5.7 5.38h17.15c3.16 0 5.72-2.4 5.72-5.38z" stroke="#000" stroke-width="3" fill="#fff" fill-opacity=".6"/><path d="M682.24 578.5c0 4.95-4.27 8.96-9.53 8.96s-9.52-4-9.52-8.96c0-4.94 4.26-8.95 9.53-8.95s9.54 4 9.54 8.95z" stroke="#000" stroke-width="3"/><path d="M682.24 605.37c0 4.95-4.27 8.95-9.53 8.95s-9.52-4-9.52-8.95c0-4.94 4.26-8.95 9.53-8.95s9.54 4 9.54 8.95z" stroke="#000" stroke-width="3" fill="#ccc"/><path d="M682.24 632.24c0 4.94-4.27 8.95-9.53 8.95s-9.52-4.02-9.52-8.96c0-4.94 4.26-8.95 9.53-8.95s9.54 4 9.54 8.94z" stroke="#000" stroke-width="3" fill="#666"/><path d="M682.24 659.1c0 4.95-4.27 8.96-9.53 8.96s-9.52-4-9.52-8.95c0-4.94 4.26-8.96 9.53-8.96s9.54 4.02 9.54 8.97z" stroke="#000" stroke-width="3" fill="#fff"/><path d="M670 740v-58.5" stroke="#000" stroke-width="3" fill="none"/><path d="M671.5 740h-3 3zM674.64 695.77h-9.28L670 681.5z"/><path d="M676.7 697.27h-13.4l5.6-17.27h2.2zm-9.27-3h5.14l-2.57-7.92z"/><path d="M1062.67 855c0-8.28 6.7-15 15-15h70c8.28 0 15 6.72 15 15v50c0 8.28-6.72 15-15 15h-70c-8.3 0-15-6.72-15-15z" stroke="#000" stroke-width="3" fill="#fff" fill-opacity=".48"/><use xlink:href="#h" transform="matrix(1,0,0,1,1062.6657266760665,840) translate(17.994791666666664 47.994791666666664)"/><path d="M1127.3 985.38c0-2.97-2.57-5.38-5.72-5.38h-17.16c-3.15 0-5.7 2.4-5.7 5.38v109.24c0 2.97 2.55 5.38 5.7 5.38h17.16c3.15 0 5.7-2.4 5.7-5.38z" stroke="#000" stroke-width="3" fill="#666" fill-opacity=".6"/><path d="M1122.53 998.5c0 4.95-4.26 8.96-9.53 8.96s-9.53-4-9.53-8.96c0-4.94 4.26-8.95 9.53-8.95s9.53 4 9.53 8.95z" stroke="#000" stroke-width="3"/><path d="M1122.53 1025.37c0 4.95-4.26 8.95-9.53 8.95s-9.53-4-9.53-8.95c0-4.94 4.26-8.95 9.53-8.95s9.53 4 9.53 8.95z" stroke="#000" stroke-width="3" fill="#ccc"/><path d="M1122.53 1052.24c0 4.94-4.26 8.95-9.53 8.95s-9.53-4.02-9.53-8.96c0-4.94 4.26-8.95 9.53-8.95s9.53 4 9.53 8.94z" stroke="#000" stroke-width="3" fill="#666"/><path d="M1122.53 1079.1c0 4.95-4.26 8.96-9.53 8.96s-9.53-4-9.53-8.95c0-4.94 4.26-8.96 9.53-8.96s9.53 4.02 9.53 8.97z" stroke="#000" stroke-width="3" fill="#fff"/><path d="M1070 1160c0-5.52 4.48-10 10-10h60c5.52 0 10 4.48 10 10v20c0 5.52-4.48 10-10 10h-60c-5.52 0-10-4.48-10-10z" stroke="#000" stroke-width="2" fill="#fff" fill-opacity="0"/><use xlink:href="#i" transform="matrix(1,0,0,1,1075,1155) translate(20.330946180555554 22.32855902777778)"/><path d="M942.67 880h120" stroke="#000" stroke-width="3" fill="none"/><path d="M942.67 881.5v-3zM1062.67 880l-14.27 4.64v-9.28z"/><path d="M1062.67 878.42v3.16l-15.77 5.12v-13.4zm-12.77 4.15l7.9-2.57-7.9-2.57z"/><path d="M1113 980v-58.5" stroke="#000" stroke-width="3" fill="none"/><path d="M1114.5 980h-3 3zM1117.64 935.77h-9.28l4.64-14.27z"/><path d="M1119.7 937.27h-13.4l5.6-17.27h2.2zm-9.27-3h5.14l-2.57-7.92z"/><path d="M1063 760c0-11.05 8.95-20 20-20h54c11.05 0 20 8.95 20 20s-8.95 20-20 20h-54c-11.05 0-20-8.95-20-20z" stroke="#000" stroke-width="3" fill="#d1bcd2"/><use xlink:href="#g" transform="matrix(1,0,0,1,1063,740) translate(9.19384765625 25.396484375)"/><path d="M1112.67 840v-58.5" stroke="#000" stroke-width="3" fill="none"/><path d="M1114.17 840h-3 3zM1117.3 795.77h-9.27l4.64-14.27z"/><path d="M1119.37 797.27h-13.4l5.6-17.27h2.2zm-9.27-3h5.14l-2.57-7.92z"/><path d="M1127 565.38c0-2.97-2.56-5.38-5.72-5.38h-17.15c-3.16 0-5.7 2.4-5.7 5.38v109.24c0 2.97 2.54 5.38 5.7 5.38h17.15c3.16 0 5.72-2.4 5.72-5.38z" stroke="#000" stroke-width="3" fill="#fff" fill-opacity=".6"/><path d="M1122.24 578.5c0 4.95-4.27 8.96-9.53 8.96s-9.52-4-9.52-8.96c0-4.94 4.26-8.95 9.53-8.95s9.54 4 9.54 8.95z" stroke="#000" stroke-width="3"/><path d="M1122.24 605.37c0 4.95-4.27 8.95-9.53 8.95s-9.52-4-9.52-8.95c0-4.94 4.26-8.95 9.53-8.95s9.54 4 9.54 8.95z" stroke="#000" stroke-width="3" fill="#ccc"/><path d="M1122.24 632.24c0 4.94-4.27 8.95-9.53 8.95s-9.52-4.02-9.52-8.96c0-4.94 4.26-8.95 9.53-8.95s9.54 4 9.54 8.94z" stroke="#000" stroke-width="3" fill="#666"/><path d="M1122.24 659.1c0 4.95-4.27 8.96-9.53 8.96s-9.52-4-9.52-8.95c0-4.94 4.26-8.96 9.53-8.96s9.54 4.02 9.54 8.97z" stroke="#000" stroke-width="3" fill="#fff"/><path d="M1110 740v-58.5" stroke="#000" stroke-width="3" fill="none"/><path d="M1111.5 740h-3 3zM1114.64 695.77h-9.28l4.64-14.27z"/><path d="M1116.7 697.27h-13.4l5.6-17.27h2.2zm-9.27-3h5.14l-2.57-7.92z"/><path d="M1180 630c0-5.52 4.48-10 10-10h80c5.52 0 10 4.48 10 10v20c0 5.52-4.48 10-10 10h-80c-5.52 0-10-4.48-10-10z" stroke="#000" stroke-width="2" fill="#fff" fill-opacity="0"/><use xlink:href="#j" transform="matrix(1,0,0,1,1185,625) translate(8.327365451388886 22.32855902777778)"/><path d="M906.96 565.38c0-2.97-2.5-5.38-5.58-5.38h-16.76c-3.08 0-5.58 2.4-5.58 5.38v109.24c0 2.97 2.5 5.38 5.58 5.38h16.76c3.08 0 5.58-2.4 5.58-5.38z" stroke="#000" stroke-width="3" fill="#ccc" fill-opacity=".6"/><path d="M902.3 578.5c0 4.95-4.16 8.96-9.3 8.96-5.14 0-9.3-4-9.3-8.96 0-4.94 4.16-8.95 9.3-8.95 5.14 0 9.3 4 9.3 8.95z" stroke="#000" stroke-width="3"/><path d="M902.3 605.37c0 4.95-4.16 8.95-9.3 8.95-5.14 0-9.3-4-9.3-8.95 0-4.94 4.16-8.95 9.3-8.95 5.14 0 9.3 4 9.3 8.95z" stroke="#000" stroke-width="3" fill="#ccc"/><path d="M902.3 632.24c0 4.94-4.16 8.95-9.3 8.95-5.14 0-9.3-4.02-9.3-8.96 0-4.94 4.16-8.95 9.3-8.95 5.14 0 9.3 4 9.3 8.94z" stroke="#000" stroke-width="3" fill="#666"/><path d="M902.3 659.1c0 4.95-4.16 8.96-9.3 8.96-5.14 0-9.3-4-9.3-8.95 0-4.94 4.16-8.96 9.3-8.96 5.14 0 9.3 4.02 9.3 8.97z" stroke="#000" stroke-width="3" fill="#fff"/><path d="M890 740v-58.5" stroke="#000" stroke-width="3" fill="none"/><path d="M891.5 740h-3 3zM894.64 695.77h-9.28L890 681.5z"/><path d="M896.7 697.27h-13.4l5.6-17.27h2.2zm-9.27-3h5.14l-2.57-7.92z"/><path d="M469.1 603.33h.47l.5.04.47.06.5.07.47.1.5.1.5.14.5.17.52.2.52.22.54.25.56.3.57.33.6.38.64.43.65.5.68.58.73.66.8.76.82.9.9 1.03.98 1.24 1.07 1.47 1.17 1.77 1.3 2.18 1.48 2.68 1.68 3.38 1.93 4.34 2.26 5.73 2.7 7.8 3.3 11.05 4.23 16.57 5.7 27.14 8.8 52.93 43.6 327.68 5.72 27.13 4.23 16.58 3.3 11.05 2.72 7.8 2.26 5.72 1.93 4.35 1.66 3.37 1.47 2.7 1.3 2.15 1.2 1.77 1.05 1.47.98 1.23.9 1.04.83.9.77.76.73.65.7.58.65.5.62.43.6.38.58.33.55.3.54.24.53.23.5.2.5.16.5.13.5.1.5.1.47.08.48.06.5.03h.48" stroke="#000" stroke-width="3" fill="none"/><path d="M469.84 602.04l-1.5 2.6-.76-.45v-3.48zM602 1169l-14.66-3.2 4.68-8z"/><path d="M602 1166.75v3.8l-17-3.7 6.76-11.58zm-12.32-1.96l8.13 1.75-5.53-6.2z"/><path d="M688.5 658l.8.02.8.05.77.08.8.1.77.16.8.2.78.22.8.26.82.3.83.36.85.4.88.45.9.5.93.6.97.68 1.02.77 1.06.9 1.13 1 1.2 1.17 1.27 1.36 1.37 1.58 1.48 1.86 1.6 2.22 1.76 2.65 1.95 3.22 2.18 3.97 2.48 4.96 2.83 6.38 3.3 8.37 3.96 11.4 4.88 16.23 6.36 24.95 9.35 44.57 47.55 271.67 6.36 24.95 4.88 16.23 3.95 11.4 3.3 8.36 2.82 6.38 2.47 4.97 2.17 3.98 1.95 3.23 1.76 2.66 1.6 2.22 1.48 1.86 1.37 1.58 1.27 1.36 1.2 1.17 1.12 1 1.06.9 1.02.77.97.67.93.6.9.5.88.46.85.4.83.35.82.32.8.26.8.22.78.2.78.14.8.1.77.1.8.04.8.02" stroke="#000" stroke-width="3" fill="none"/><path d="M689.04 656.6l-1.08 2.8-.96-.37v-3.22zM850 1169l-14.98-.83 3.35-8.65z"/><path d="M850 1167.06v3.44l-17.12-.95 4.84-12.5zm-12.83-.28l8.3.47-6.44-5.26z"/><path d="M908.46 576.67h.7l.67.05.68.08.7.1.67.13.68.16.7.18.7.23.7.27.74.3.74.36.77.4.8.46.82.52.86.6.9.68.95.78 1 .9 1.06 1.05 1.13 1.2 1.23 1.43 1.32 1.67 1.45 2 1.58 2.4 1.78 2.9 1.98 3.6 2.24 4.54 2.58 5.8 3 7.64 3.6 10.4 4.43 14.7 5.68 22.23 7.84 37.3 13.8 83.64 38.42 259.57 7.84 37.3 5.67 22.22 4.42 14.72 3.6 10.38 3 7.63 2.6 5.8 2.23 4.53 1.98 3.6 1.76 2.92 1.6 2.4 1.44 1.98 1.32 1.68 1.23 1.43 1.13 1.2 1.07 1.05 1 .9.95.8.9.67.85.6.83.52.8.46.76.4.75.36.73.3.7.26.7.23.7.18.7.16.67.13.68.1.68.07.68.05h.7" stroke="#000" stroke-width="3" fill="none"/><path d="M909.06 575.3l-1.2 2.74-.9-.4v-3.27zM1070 1170l-14.93-1.5 3.73-8.48z"/><path d="M1070 1168v3.5l-17.13-1.7 5.4-12.28zm-12.72-.78l8.28.83-6.2-5.54z"/><path d="M673 1149v-47.5" stroke="#000" stroke-width="3" fill="none"/><path d="M674.5 1149h-3 3zM677.64 1115.77h-9.28l4.64-14.27z"/><path d="M679.7 1117.27h-13.4l5.6-17.27h2.2zm-9.27-3h5.14l-2.57-7.92z"/><path d="M890 1149v-47.5" stroke="#000" stroke-width="3" fill="none"/><path d="M891.5 1149h-3 3zM894.64 1115.77h-9.28l4.64-14.27z"/><path d="M896.7 1117.27h-13.4l5.6-17.27h2.2zm-9.27-3h5.14l-2.57-7.92z"/><path d="M1110 1150v-48.5" stroke="#000" stroke-width="3" fill="none"/><path d="M1111.5 1150h-3 3zM1114.64 1115.77h-9.28l4.64-14.27z"/><path d="M1116.7 1117.27h-13.4l5.6-17.27h2.2zm-9.27-3h5.14l-2.57-7.92z"/><path d="M449.5 1149.9l.5-48.4" stroke="#000" stroke-width="3" fill="none"/><path d="M449.57 1149.9H448v-.03zM454.5 1115.8l-9.28-.08 4.78-14.22z"/><path d="M456.54 1117.33l-13.4-.13 5.78-17.2h2.18zm-9.24-3.1l5.14.06-2.5-7.95z"/><path d="M1128.5 635.33l50.25.8" stroke="#000" stroke-width="3" fill="none"/><path d="M1128.52 633.83l-.04 3-1.48-.02v-3zM1178.75 636.14l-14.34 4.4.16-9.26z"/><path d="M1180 634.98v2.35l-17.12 5.26.2-13.4zm-14.06 3.53l7.96-2.44-7.87-2.7z"/><defs><path d="M101-516v-322l1027-391v228L295-676l833 324v227" id="k"/><path d="M622-916c-112 2-200 14-200 111 0 90 89 101 168 121 234 58 514 77 514 368C1104-4 751 54 434 5 267-21 161-112 121-270l247-37c24 111 113 145 252 141 114-3 226-12 226-124 0-101-103-113-192-134-225-54-490-76-490-351 0-247 201-328 458-328 245 0 413 88 457 292l-249 26c-16-98-92-133-208-131" id="l"/><path d="M616-1102c361 0 521 202 521 560 0 354-171 562-527 562C259 20 92-192 92-542c0-351 169-560 524-560zm-9 930c200-2 236-165 236-370 0-199-27-367-223-367-195 0-233 146-233 367 0 129 18 223 55 282s92 88 165 88" id="m"/><path d="M101-125v-227l832-324-832-325v-228l1027 391v322" id="n"/><g id="a"><use transform="matrix(0.01193576388888889,0,0,0.01193576388888889,0,0)" xlink:href="#k"/><use transform="matrix(0.01193576388888889,0,0,0.01193576388888889,14.669053819444446,0)" xlink:href="#l"/><use transform="matrix(0.01193576388888889,0,0,0.01193576388888889,29.338107638888893,0)" xlink:href="#m"/><use transform="matrix(0.01193576388888889,0,0,0.01193576388888889,44.00716145833334,0)" xlink:href="#l"/><use transform="matrix(0.01193576388888889,0,0,0.01193576388888889,58.676215277777786,0)" xlink:href="#n"/></g><path d="M1109-360C1066-122 902 20 624 20c-347 0-514-209-514-555 0-353 168-567 518-567 270 0 425 136 473 361l-283 14c-16-106-75-183-196-182-75 0-130 31-165 93s-52 152-52 270c0 249 74 374 221 374 120 0 188-82 201-201zM645 102c110 4 185 51 185 153 0 184-210 201-404 184V321c84 11 221 20 221-62 0-75-92-71-174-67L542 0h143" id="o"/><path d="M775-193C708-75 621 20 439 20 226 20 106-93 106-306c0-251 170-341 417-346l223-4c4-143-12-264-148-264-103 0-141 58-150 153l-293-14c37-219 194-321 455-321 263 0 418 130 417 390v392c1 84 5 161 89 160 21 0 42-2 62-6v152c-57 15-108 27-180 26-145 0-202-73-217-205h-6zm-256 17c168 0 234-139 227-325-166 4-347-25-347 173 0 94 33 152 120 152" id="p"/><g id="b"><use transform="matrix(0.01193576388888889,0,0,0.01193576388888889,0,0)" xlink:href="#o"/><use transform="matrix(0.01193576388888889,0,0,0.01193576388888889,14.669053819444446,0)" xlink:href="#p"/></g><path d="M1109-360C1066-122 902 20 624 20c-347 0-514-209-514-555 0-353 168-567 518-567 270 0 425 136 473 361l-283 14c-16-106-75-183-196-182-75 0-130 31-165 93s-52 152-52 270c0 249 74 374 221 374 120 0 188-82 201-201" id="q"/><path d="M934-1102c199 0 220 177 220 381V0H926c-2-260 10-533-4-785-4-72-14-138-83-138-34 0-61 27-81 81s-29 134-29 241V0H501c-2-260 9-533-5-785-4-72-13-138-82-138-46 0-65 47-80 93-21 67-30 155-30 248V0H75c-3-360 6-732-6-1082h209c6 50 3 123 8 175 36-100 83-195 216-195 135 0 166 79 196 196 42-105 93-196 236-196" id="r"/><path d="M1113-274C1038-96 884 20 626 20c-352 0-526-209-526-566 0-358 185-556 530-556 358 0 496 251 499 615H395c5 180 68 319 245 319 102 0 186-45 208-129zM857-663c-6-177-128-307-315-247-94 30-141 121-145 247h460" id="s"/><path d="M768-1103c247 0 336 167 336 416V0H824v-619c-3-164-24-273-171-273-164 0-229 142-229 312V0H143c-4-359 9-736-8-1082h268c7 63 12 146 13 215h4c67-145 160-236 348-236" id="t"/><path d="M711 13c-250 0-386-99-385-349l2-556H161v-190h181l88-282h176v282h385v190H606v530c-10 130 45 186 174 184 91-2 176-11 255-27v186C933-1 833 13 711 13" id="u"/><g id="c"><use transform="matrix(0.01193576388888889,0,0,0.01193576388888889,0,0)" xlink:href="#q"/><use transform="matrix(0.01193576388888889,0,0,0.01193576388888889,14.669053819444446,0)" xlink:href="#m"/><use transform="matrix(0.01193576388888889,0,0,0.01193576388888889,29.338107638888893,0)" xlink:href="#r"/><use transform="matrix(0.01193576388888889,0,0,0.01193576388888889,44.00716145833334,0)" xlink:href="#r"/><use transform="matrix(0.01193576388888889,0,0,0.01193576388888889,58.676215277777786,0)" xlink:href="#s"/><use transform="matrix(0.01193576388888889,0,0,0.01193576388888889,73.34526909722223,0)" xlink:href="#t"/><use transform="matrix(0.01193576388888889,0,0,0.01193576388888889,88.01432291666667,0)" xlink:href="#u"/></g><path d="M237 0v-1349h191v1193h672V0H237" id="v"/><path d="M614-1226c-167 1-283 53-283 213 0 183 186 193 334 234 230 63 463 120 463 409 0 286-219 387-518 390C309 23 131-98 79-338l185-37c34 165 149 248 351 246 184-2 324-58 324-238 0-203-207-221-372-266-210-57-422-111-422-377 0-267 201-356 470-360 279-5 430 101 480 324l-188 33c-28-141-121-215-293-213" id="w"/><path d="M709-1193V0H519v-1193H76v-156h1076v156H709" id="x"/><path d="M285-1169c8 382 2 780 4 1169H129v-1349h237c86 239 188 461 253 720 69-258 169-481 255-720h225V0H937c2-390-5-788 6-1169-75 255-170 488-259 729H547c-90-240-185-475-262-729" id="y"/><g id="d"><use transform="matrix(0.013020833333333334,0,0,0.013020833333333334,0,0)" xlink:href="#v"/><use transform="matrix(0.013020833333333334,0,0,0.013020833333333334,16.002604166666668,0)" xlink:href="#w"/><use transform="matrix(0.013020833333333334,0,0,0.013020833333333334,32.005208333333336,0)" xlink:href="#x"/><use transform="matrix(0.013020833333333334,0,0,0.013020833333333334,48.0078125,0)" xlink:href="#y"/></g><path d="M621-530c0 421 127 700 301 955H641C466 173 344-110 344-531s122-702 297-953h281c-174 254-301 534-301 954" id="z"/><path d="M802-909c-3-189-2-383-2-575h281v1248c-1 83 4 168 8 236H817c-9-50-14-117-15-176h-4C735-49 651 20 482 20 191 20 97-238 97-539c0-243 66-432 221-519 50-28 108-42 175-42 162 2 253 78 309 191zm-70 658c91-113 93-462 2-584-46-61-145-100-224-53-96 56-119 190-120 349 0 123 17 214 52 275 46 82 130 115 222 74 25-12 46-33 68-61" id="A"/><path d="M875-1102c70 0 148 7 206 17v237c-110-17-267-37-359 15-123 69-192 207-192 395V0H250c-10-367 32-789-52-1082h271c19 69 36 149 46 228h4c52-151 151-250 356-248" id="B"/><g id="e"><use transform="matrix(0.0087890625,0,0,0.0087890625,0,0)" xlink:href="#z"/><use transform="matrix(0.0087890625,0,0,0.0087890625,10.8017578125,0)" xlink:href="#s"/><use transform="matrix(0.0087890625,0,0,0.0087890625,21.603515625,0)" xlink:href="#t"/><use transform="matrix(0.0087890625,0,0,0.0087890625,32.4052734375,0)" xlink:href="#q"/><use transform="matrix(0.0087890625,0,0,0.0087890625,43.20703125,0)" xlink:href="#m"/><use transform="matrix(0.0087890625,0,0,0.0087890625,54.0087890625,0)" xlink:href="#A"/><use transform="matrix(0.0087890625,0,0,0.0087890625,64.810546875,0)" xlink:href="#s"/><use transform="matrix(0.0087890625,0,0,0.0087890625,75.6123046875,0)" xlink:href="#B"/></g><path d="M427-171c3 195 2 397 2 596H148V-846c1-83-4-168-8-236h272c10 49 14 118 15 176h4c59-114 151-197 316-197 291 0 385 259 385 560 0 243-65 433-220 521-50 28-109 42-176 42-162-2-253-78-309-191zm69-661c-91 113-92 463-1 586 46 62 145 101 225 54 96-57 118-191 119-351 0-123-18-215-53-276-46-82-128-115-220-74-25 12-48 33-70 61" id="C"/><path d="M794-190h353V0H118v-190h395v-702H223v-190h571v892zM513-1277v-207h281v207H513" id="D"/><path d="M885-531c0 421-122 704-297 956H307c174-255 301-534 301-955 0-420-127-700-301-954h281c175 251 297 532 297 953" id="E"/><g id="f"><use transform="matrix(0.0087890625,0,0,0.0087890625,0,0)" xlink:href="#B"/><use transform="matrix(0.0087890625,0,0,0.0087890625,10.8017578125,0)" xlink:href="#s"/><use transform="matrix(0.0087890625,0,0,0.0087890625,21.603515625,0)" xlink:href="#C"/><use transform="matrix(0.0087890625,0,0,0.0087890625,32.4052734375,0)" xlink:href="#B"/><use transform="matrix(0.0087890625,0,0,0.0087890625,43.20703125,0)" xlink:href="#s"/><use transform="matrix(0.0087890625,0,0,0.0087890625,54.0087890625,0)" xlink:href="#l"/><use transform="matrix(0.0087890625,0,0,0.0087890625,64.810546875,0)" xlink:href="#s"/><use transform="matrix(0.0087890625,0,0,0.0087890625,75.6123046875,0)" xlink:href="#t"/><use transform="matrix(0.0087890625,0,0,0.0087890625,86.4140625,0)" xlink:href="#u"/><use transform="matrix(0.0087890625,0,0,0.0087890625,97.2158203125,0)" xlink:href="#p"/><use transform="matrix(0.0087890625,0,0,0.0087890625,108.017578125,0)" xlink:href="#u"/><use transform="matrix(0.0087890625,0,0,0.0087890625,118.8193359375,0)" xlink:href="#D"/><use transform="matrix(0.0087890625,0,0,0.0087890625,129.62109375,0)" xlink:href="#m"/><use transform="matrix(0.0087890625,0,0,0.0087890625,140.4228515625,0)" xlink:href="#t"/><use transform="matrix(0.0087890625,0,0,0.0087890625,151.224609375,0)" xlink:href="#E"/></g><path d="M873-819c-18-114-119-146-250-146-163 0-245 50-245 151 0 151 170 148 294 185 182 54 388 94 388 320 0 240-189 325-439 329-245 4-410-69-454-268l159-31c24 133 136 168 295 165 144-2 270-31 270-171 0-164-195-160-331-202-167-52-350-87-350-299 0-218 173-315 413-313 220 2 373 77 412 260" id="F"/><path d="M615-1102c343 0 484 203 482 560-1 347-147 562-488 562-336 0-475-219-479-562-4-349 156-560 485-560zm-8 989c240 0 301-180 301-429 0-245-55-427-290-427-236 0-299 181-299 427 0 243 61 429 288 429" id="G"/><path d="M839-1335c-182-6-269 67-259 253h491v142H580V0H400v-940H138v-142h262c-15-293 132-408 418-402 94 2 200 7 281 21v145c-75-10-177-14-260-17" id="H"/><path d="M682 16c-209 0-323-80-324-285v-671H190v-142h170l58-282h120v282h432v142H538v652c2 114 60 155 182 155 106 0 209-16 297-34v137C921-4 806 16 682 16" id="I"/><path d="M904-1102c199 0 220 177 220 381V0H956v-686c-3-114 0-215-60-264-70-33-125-4-158 71-26 56-39 140-39 252V0H531v-686c-3-114-1-215-61-264-78-41-136 24-157 84-24 69-39 159-39 259V0H105c-3-360 6-732-6-1082h149c6 50 3 123 8 175 36-100 83-195 216-195 135 0 166 79 196 196 42-105 93-196 236-196" id="J"/><path d="M1000-272c3 95 12 159 101 161 21 0 41-3 59-7V-6c-44 10-86 16-139 16-141 2-191-84-197-217h-6C748-76 648 20 446 20c-207 0-318-120-318-322 0-266 194-348 454-354l236-4c12-191-40-305-222-305-140 0-220 47-232 172l-188-17c33-204 181-292 423-292 255 0 401 118 401 364v466zm-683-27c0 109 63 184 175 182 166-3 259-96 306-217 24-65 20-120 20-200-232 7-501-28-501 235" id="K"/><path d="M932 0L611-444 288 0H94l415-556-397-526h199l300 421 298-421h201L713-558 1133 0H932" id="L"/><g id="g"><use transform="matrix(0.0087890625,0,0,0.0087890625,0,0)" xlink:href="#F"/><use transform="matrix(0.0087890625,0,0,0.0087890625,10.8017578125,0)" xlink:href="#G"/><use transform="matrix(0.0087890625,0,0,0.0087890625,21.603515625,0)" xlink:href="#H"/><use transform="matrix(0.0087890625,0,0,0.0087890625,32.4052734375,0)" xlink:href="#I"/><use transform="matrix(0.0087890625,0,0,0.0087890625,43.20703125,0)" xlink:href="#J"/><use transform="matrix(0.0087890625,0,0,0.0087890625,54.0087890625,0)" xlink:href="#K"/><use transform="matrix(0.0087890625,0,0,0.0087890625,64.810546875,0)" xlink:href="#L"/></g><g id="h"><use transform="matrix(0.013020833333333334,0,0,0.013020833333333334,0,0)" xlink:href="#v"/><use transform="matrix(0.013020833333333334,0,0,0.013020833333333334,16.002604166666668,0)" xlink:href="#w"/><use transform="matrix(0.013020833333333334,0,0,0.013020833333333334,32.005208333333336,0)" xlink:href="#x"/><use transform="matrix(0.013020833333333334,0,0,0.013020833333333334,48.0078125,0)" xlink:href="#y"/></g><path d="M774 0H438L31-1082h297c94 290 200 568 280 872 83-304 194-581 291-872h294" id="M"/><g id="i"><use transform="matrix(0.01193576388888889,0,0,0.01193576388888889,0,0)" xlink:href="#M"/><use transform="matrix(0.01193576388888889,0,0,0.01193576388888889,14.669053819444446,0)" xlink:href="#p"/></g><g id="j"><use transform="matrix(0.01193576388888889,0,0,0.01193576388888889,0,0)" xlink:href="#k"/><use transform="matrix(0.01193576388888889,0,0,0.01193576388888889,14.669053819444446,0)" xlink:href="#s"/><use transform="matrix(0.01193576388888889,0,0,0.01193576388888889,29.338107638888893,0)" xlink:href="#m"/><use transform="matrix(0.01193576388888889,0,0,0.01193576388888889,44.00716145833334,0)" xlink:href="#l"/><use transform="matrix(0.01193576388888889,0,0,0.01193576388888889,58.676215277777786,0)" xlink:href="#n"/></g></defs></g></svg>