<svg xmlns="http://www.w3.org/2000/svg" xmlns:xlink="http://www.w3.org/1999/xlink" xmlns:lucid="lucid" width="760" height="620"><g transform="translate(-340 -660)" lucid:page-tab-id="0_0"><path d="M460 699c0-10.5 8.5-19 19-19h482c10.5 0 19 8.5 19 19v202c0 10.5-8.5 19-19 19H479c-10.5 0-19-8.5-19-19z" stroke="#000" stroke-width="4" fill="#e5e5e5" fill-opacity=".29"/><path d="M570 740h300v113.3H570z" fill="#fff" fill-opacity="0"/><path d="M630.18 811.26l-3.73 21.02h-52.37l27.56-35.86-25.8-36h52.5v17.65h-2.1c-1.47-9.5-4.15-13-13.5-13h-22.5l20.4 27.5-23.63 30.5h29.12c7.87 0 10.4-4.78 11.95-11.8h2.1M654.36 798.46h44.8v-4.22h-44.8zM683.9 783.9h-13.73v-.74c3.68-.2 4.72-1.25 4.72-3.98v-22.32c0-1.7-.45-2.44-1.5-2.44-.5 0-1.34.25-2.23.6l-1.35.5v-.7l8.9-4.52.45.15v29.67c0 2.14 1 3.04 4.72 3.04v.74M671.7 821.83c0 1.4-1.14 2.54-2.43 2.54-1.44 0-2.4-1.05-2.4-2.64 0-1.54 1-2.63 2.35-2.63 1.34 0 2.48 1.3 2.48 2.73m-2.08 24.1l.64.56c-2.73 4.17-4.32 5.66-6.8 5.66-1.65 0-2.44-.9-2.44-2.74 0-1 .34-2.73 1.1-5.52l2.38-8.8c.25-.9.44-1.78.44-2.18 0-1-.5-1.15-3.18-1.2v-.8c1.94-.14 2.94-.3 7.96-1.23l.2.14-4.68 17.05c-.25.83-.5 1.48-.5 2.17 0 .5.3.75.7.75.85 0 2.04-1.04 4.18-3.88M689.06 827.8l-1.9 4.83H673.4v-.42l6.27-6.64c3.3-3.48 4.57-6.15 4.57-9.14 0-3.2-1.9-4.95-4.88-4.95-2.54 0-3.77 1.12-5.17 4.57l-.75-.18c.74-4.1 3-7 7.3-7 3.98 0 6.5 2.7 6.5 6.2 0 2.77-1.36 5.4-4.48 8.7l-5.8 6.2h8.22c1.47 0 2.2-.4 3.37-2.36M771.98 791.43h-41.4v-4.64h41.4v4.63m0 14.06h-41.4v-4.65h41.4v4.64M803.33 798.46h58.14v-4.22h-58.14zM834.2 761.72l-1.05 3.68h-5.07c-.7 2.48-3.33 11.03-3.33 12.03 0 1.14.5 2.08 1.54 2.08 1 0 2.33-.33 3.52-3.02h.8c-.75 3.08-3.08 7.06-6.8 7.06-2.15 0-2.95-1.8-2.95-3.73 0-1.13.5-3.02.85-3.96l3.78-10.44h-5.17c-2.24 6.06-3.53 14.7-7.56 17.9-.54.4-1.24.6-1.8.6-1.28 0-2.47-1-2.47-2.2 0-.74.25-2.1 1.5-2.43 2.08-.55 3.07-2.2 3.57-3.48l4.07-10.4h-.3c-2.58 0-3.92.05-6.1 2.73h-.8c2.68-4.52 5.26-6.4 10.3-6.4h13.46M851.35 760.15l-1.9 4.8H835.7v-.4l6.27-6.65c3.3-3.48 4.56-6.16 4.56-9.14 0-3.2-1.9-4.96-4.88-4.96-2.53 0-3.76 1.13-5.17 4.57l-.74-.18c.74-4.12 3-7 7.3-7 4 0 6.52 2.7 6.52 6.2 0 2.76-1.37 5.4-4.5 8.7l-5.8 6.2h8.22c1.48 0 2.22-.4 3.38-2.36M842.1 808.86l.1.8c-7.8 1.28-13.36 6.65-14.7 14.16 2.43-1.9 4.12-2.24 6.3-2.24 5.82 0 9.4 3.98 9.4 10.4 0 3.17-.9 5.96-2.53 7.95-1.84 2.28-4.63 3.63-7.9 3.63-3.93 0-7.07-1.84-8.8-5.03-1.4-2.53-2.34-6.06-2.34-9.54 0-5.38 1.9-10.1 5.42-13.73 4.27-4.47 8.2-5.67 15.06-6.4m-3.37 24.64c0-6.35-2.1-9.63-6.7-9.63-2.85 0-5.78 1.2-5.78 5.77 0 7.55 2.4 12.52 7.06 12.52 3.6 0 5.43-3.58 5.43-8.65"/><path d="M360 1172c0-6.63 5.37-12 12-12h696c6.63 0 12 5.37 12 12v36c0 6.63-5.37 12-12 12H372c-6.63 0-12-5.37-12-12z" stroke="#000" stroke-opacity="0" stroke-width="2" fill="#fff" fill-opacity="0"/><use xlink:href="#a" transform="matrix(1,0,0,1,365,1165) translate(8.276909722222115 31.66232638888889)"/><use xlink:href="#b" transform="matrix(1,0,0,1,365,1165) translate(74.95442708333323 31.66232638888889)"/><use xlink:href="#c" transform="matrix(1,0,0,1,365,1165) translate(154.96744791666657 31.66232638888889)"/><use xlink:href="#d" transform="matrix(1,0,0,1,365,1165) translate(181.63845486111103 31.66232638888889)"/><use xlink:href="#e" transform="matrix(1,0,0,1,365,1165) translate(208.3094618055555 31.66232638888889)"/><use xlink:href="#c" transform="matrix(1,0,0,1,365,1165) translate(234.98046874999994 31.66232638888889)"/><use xlink:href="#f" transform="matrix(1,0,0,1,365,1165) translate(261.6514756944444 31.66232638888889)"/><use xlink:href="#g" transform="matrix(1,0,0,1,365,1165) translate(288.32248263888886 31.66232638888889)"/><use xlink:href="#h" transform="matrix(1,0,0,1,365,1165) translate(314.9934895833333 31.66232638888889)"/><use xlink:href="#e" transform="matrix(1,0,0,1,365,1165) translate(341.66449652777777 31.66232638888889)"/><use xlink:href="#i" transform="matrix(1,0,0,1,365,1165) translate(368.33550347222223 31.66232638888889)"/><use xlink:href="#j" transform="matrix(1,0,0,1,365,1165) translate(395.0065104166667 31.66232638888889)"/><use xlink:href="#c" transform="matrix(1,0,0,1,365,1165) translate(475.01953125000006 31.66232638888889)"/><use xlink:href="#k" transform="matrix(1,0,0,1,365,1165) translate(501.6905381944445 31.66232638888889)"/><use xlink:href="#g" transform="matrix(1,0,0,1,365,1165) translate(555.0325520833335 31.66232638888889)"/><use xlink:href="#h" transform="matrix(1,0,0,1,365,1165) translate(581.7035590277778 31.66232638888889)"/><use xlink:href="#e" transform="matrix(1,0,0,1,365,1165) translate(608.3745659722224 31.66232638888889)"/><use xlink:href="#c" transform="matrix(1,0,0,1,365,1165) translate(635.0455729166667 31.66232638888889)"/><use xlink:href="#l" transform="matrix(1,0,0,1,365,1165) translate(661.7165798611113 31.66232638888889)"/><use xlink:href="#m" transform="matrix(1,0,0,1,365,1165) translate(688.3875868055557 31.66232638888889)"/><path d="M768 1000c17.67 0 32 17.9 32 40s-14.33 40-32 40h-96c-17.67 0-32-17.9-32-40s14.33-40 32-40z" stroke="#000" stroke-width="4" fill="#b2d6ef" fill-opacity=".55"/><g><use xlink:href="#n" transform="matrix(1,0,0,1,640,1000) translate(19.990234374999986 46.662326388888886)"/></g><path d="M720 920v80" stroke="#000" stroke-width="4" fill="none"/><path d="M722 920h-4 4zM731.9 983.8l-9.58 16.2h-4.64l-9.58-16.2 3.44-2.03 8.46 14.3 8.46-14.3z"/><path d="M860 880h120v20H860z" stroke="#000" stroke-opacity="0" stroke-width="2" fill="#fff" fill-opacity="0"/><g><use xlink:href="#o" transform="matrix(1,0,0,1,865,885) translate(17.19384765625 14.396484375)"/></g><path d="M360 1175c0-8.28 6.72-15 15-15h690c8.28 0 15 6.72 15 15v70c0 8.28-6.72 15-15 15H375c-8.28 0-15-6.72-15-15z" stroke="#000" stroke-width="2" fill-opacity="0"/><path d="M960 1220h120v20H960z" stroke="#000" stroke-opacity="0" stroke-width="2" fill="#fff" fill-opacity="0"/><g><use xlink:href="#p" transform="matrix(1,0,0,1,965,1225) translate(22.5947265625 14.396484375)"/></g><path d="M720 1080v79" stroke="#000" stroke-width="4" fill="none"/><path d="M722 1080h-4 4zM731.9 1142.8l-10.17 17.2h-3.46l-10.17-17.2 3.44-2.03 8.46 14.3 8.46-14.3z"/><defs><path d="M908 20L91-1484h228L1140 20H908" id="q"/><path d="M622-916c-112 2-200 14-200 111 0 90 89 101 168 121 234 58 514 77 514 368C1104-4 751 54 434 5 267-21 161-112 121-270l247-37c24 111 113 145 252 141 114-3 226-12 226-124 0-101-103-113-192-134-225-54-490-76-490-351 0-247 201-328 458-328 245 0 413 88 457 292l-249 26c-16-98-92-133-208-131" id="r"/><path d="M471 20c-247 0-336-169-336-415v-687h281v607c4 148 31 285 172 285 152 0 207-150 207-312v-580h281c4 359-9 736 8 1082H816c-7-63-11-146-12-215h-5C736-76 644 20 471 20" id="s"/><path d="M934-1102c199 0 220 177 220 381V0H926c-2-260 10-533-4-785-4-72-14-138-83-138-34 0-61 27-81 81s-29 134-29 241V0H501c-2-260 9-533-5-785-4-72-13-138-82-138-46 0-65 47-80 93-21 67-30 155-30 248V0H75c-3-360 6-732-6-1082h209c6 50 3 123 8 175 36-100 83-195 216-195 135 0 166 79 196 196 42-105 93-196 236-196" id="t"/><g id="a"><use transform="matrix(0.010850694444444444,0,0,0.010850694444444444,0,0)" xlink:href="#q"/><use transform="matrix(0.010850694444444444,0,0,0.010850694444444444,13.335503472222221,0)" xlink:href="#r"/><use transform="matrix(0.010850694444444444,0,0,0.010850694444444444,26.671006944444443,0)" xlink:href="#s"/><use transform="matrix(0.010850694444444444,0,0,0.010850694444444444,40.006510416666664,0)" xlink:href="#t"/></g><path d="M844-1321c-130 0-195 53-191 182v57h443v190H653V0H373v-892H117v-190h256v-83c5-247 162-348 422-349 120-1 232 13 327 28v184c-84-10-183-19-278-19" id="u"/><path d="M875-1102c70 0 148 7 206 17v237c-110-17-267-37-359 15-123 69-192 207-192 395V0H250c-10-367 32-789-52-1082h271c19 69 36 149 46 228h4c52-151 151-250 356-248" id="v"/><path d="M775-193C708-75 621 20 439 20 226 20 106-93 106-306c0-251 170-341 417-346l223-4c4-143-12-264-148-264-103 0-141 58-150 153l-293-14c37-219 194-321 455-321 263 0 418 130 417 390v392c1 84 5 161 89 160 21 0 42-2 62-6v152c-57 15-108 27-180 26-145 0-202-73-217-205h-6zm-256 17c168 0 234-139 227-325-166 4-347-25-347 173 0 94 33 152 120 152" id="w"/><path d="M1109-360C1066-122 902 20 624 20c-347 0-514-209-514-555 0-353 168-567 518-567 270 0 425 136 473 361l-283 14c-16-106-75-183-196-182-75 0-130 31-165 93s-52 152-52 270c0 249 74 374 221 374 120 0 188-82 201-201" id="x"/><g id="b"><use transform="matrix(0.010850694444444444,0,0,0.010850694444444444,0,0)" xlink:href="#q"/><use transform="matrix(0.010850694444444444,0,0,0.010850694444444444,13.335503472222221,0)" xlink:href="#u"/><use transform="matrix(0.010850694444444444,0,0,0.010850694444444444,26.671006944444443,0)" xlink:href="#v"/><use transform="matrix(0.010850694444444444,0,0,0.010850694444444444,40.006510416666664,0)" xlink:href="#w"/><use transform="matrix(0.010850694444444444,0,0,0.010850694444444444,53.342013888888886,0)" xlink:href="#x"/></g><path d="M685 25c1 134 43 209 172 209h188v191H718c-189-5-295-108-295-299v-328c1-155-78-228-229-229v-195c150-4 229-75 229-231v-328c-2-190 109-299 295-299h327v190H857c-129 1-171 76-172 209v301c-5 144-88 222-207 252v4c118 31 207 107 207 252V25" id="y"/><use transform="matrix(0.010850694444444444,0,0,0.010850694444444444,0,0)" xlink:href="#y" id="c"/><path d="M138-1120c207-4 339-93 415-229h266v1140h323V0H149v-209h389v-891c-70 121-216 187-400 194v-214" id="z"/><use transform="matrix(0.010850694444444444,0,0,0.010850694444444444,0,0)" xlink:href="#z" id="d"/><path d="M806 126c-4 191-105 299-295 299H184V234h188c129-1 171-75 172-209v-301c5-145 89-221 207-252v-4c-119-30-207-108-207-252v-301c-1-133-43-209-172-209H184v-190h327c186 0 295 109 295 299v328c-1 156 79 227 229 231v195c-151 1-229 74-229 229v328" id="A"/><use transform="matrix(0.010850694444444444,0,0,0.010850694444444444,0,0)" xlink:href="#A" id="e"/><path d="M794-190h353V0H118v-190h395v-702H223v-190h571v892zM513-1277v-207h281v207H513" id="B"/><use transform="matrix(0.010850694444444444,0,0,0.010850694444444444,0,0)" xlink:href="#B" id="f"/><path d="M922-514l-326-752-324 752H45l391-895h322l393 895H922" id="C"/><use transform="matrix(0.010850694444444444,0,0,0.010850694444444444,0,0)" xlink:href="#C" id="g"/><path d="M135-968c34-256 187-402 480-402 217 0 371 75 441 220 45 93 40 219-8 308-114 212-348 323-508 488-38 39-66 80-85 123h654V0H123v-195c112-245 321-399 515-560 57-48 107-96 142-157 14-26 22-53 22-80-1-104-73-156-185-154-131 2-181 74-199 194" id="D"/><use transform="matrix(0.010850694444444444,0,0,0.010850694444444444,0,0)" xlink:href="#D" id="h"/><path d="M101-842v-223h1027v223H101zm0 551v-221h1027v221H101" id="E"/><use transform="matrix(0.010850694444444444,0,0,0.010850694444444444,0,0)" xlink:href="#E" id="i"/><g id="j"><use transform="matrix(0.010850694444444444,0,0,0.010850694444444444,0,0)" xlink:href="#q"/><use transform="matrix(0.010850694444444444,0,0,0.010850694444444444,13.335503472222221,0)" xlink:href="#u"/><use transform="matrix(0.010850694444444444,0,0,0.010850694444444444,26.671006944444443,0)" xlink:href="#v"/><use transform="matrix(0.010850694444444444,0,0,0.010850694444444444,40.006510416666664,0)" xlink:href="#w"/><use transform="matrix(0.010850694444444444,0,0,0.010850694444444444,53.342013888888886,0)" xlink:href="#x"/></g><path d="M427-171c3 195 2 397 2 596H148V-846c1-83-4-168-8-236h272c10 49 14 118 15 176h4c59-114 151-197 316-197 291 0 385 259 385 560 0 243-65 433-220 521-50 28-109 42-176 42-162-2-253-78-309-191zm69-661c-91 113-92 463-1 586 46 62 145 101 225 54 96-57 118-191 119-351 0-123-18-215-53-276-46-82-128-115-220-74-25 12-48 33-70 61" id="F"/><g id="k"><use transform="matrix(0.010850694444444444,0,0,0.010850694444444444,0,0)" xlink:href="#q"/><use transform="matrix(0.010850694444444444,0,0,0.010850694444444444,13.335503472222221,0)" xlink:href="#F"/><use transform="matrix(0.010850694444444444,0,0,0.010850694444444444,26.671006944444443,0)" xlink:href="#B"/></g><path d="M706-877c265 0 409 163 409 431 0 299-171 466-474 466-381 0-516-302-516-692 0-236 47-410 135-526 112-147 319-207 541-154 154 36 236 149 276 306l-265 37c-22-86-75-139-170-139-76 0-135 36-178 108s-64 179-64 318c54-94 164-155 306-155zm-74 678c138 0 201-98 201-239s-67-232-208-232c-125 0-205 73-205 202 0 149 67 269 212 269" id="G"/><use transform="matrix(0.010850694444444444,0,0,0.010850694444444444,0,0)" xlink:href="#G" id="l"/><use transform="matrix(0.010850694444444444,0,0,0.010850694444444444,0,0)" xlink:href="#A" id="m"/><path d="M157-1349h916v228H762v893h311V0H157v-228h311v-893H157v-228" id="H"/><path d="M1108-33c-3 314-178 467-492 467-243 0-400-94-447-291l281-33c17 79 82 141 174 141 176 0 212-155 205-347-2-40 5-80 0-115C773-85 665-12 501-12c-288 0-377-242-377-538 0-242 65-426 223-510 50-26 108-39 175-39 160 0 253 78 307 191h5c1-58 5-125 14-174h266c-12 335-3 703-6 1049zM811-384c25-82 27-259 1-342-30-99-77-180-190-180-172 0-205 171-205 356 0 116 18 202 54 258 48 76 129 107 221 70 62-25 96-86 119-162" id="I"/><path d="M211 0v-1349h295v1121h616V0H211" id="J"/><path d="M762-1121V0H467v-1121H61v-228h1107v228H762" id="K"/><path d="M1113-274C1038-96 884 20 626 20c-352 0-526-209-526-566 0-358 185-556 530-556 358 0 496 251 499 615H395c5 180 68 319 245 319 102 0 186-45 208-129zM857-663c-6-177-128-307-315-247-94 30-141 121-145 247h460" id="L"/><path d="M919 0L616-493 312 0H0l459-711-418-638h312l263 430 262-430h310L760-711 1229 0H919" id="M"/><g id="n"><use transform="matrix(0.010850694444444444,0,0,0.010850694444444444,0,0)" xlink:href="#H"/><use transform="matrix(0.010850694444444444,0,0,0.010850694444444444,13.335503472222221,0)" xlink:href="#t"/><use transform="matrix(0.010850694444444444,0,0,0.010850694444444444,26.671006944444443,0)" xlink:href="#I"/><use transform="matrix(0.010850694444444444,0,0,0.010850694444444444,40.006510416666664,0)" xlink:href="#D"/><use transform="matrix(0.010850694444444444,0,0,0.010850694444444444,53.342013888888886,0)" xlink:href="#J"/><use transform="matrix(0.010850694444444444,0,0,0.010850694444444444,66.67751736111111,0)" xlink:href="#w"/><use transform="matrix(0.010850694444444444,0,0,0.010850694444444444,80.01302083333334,0)" xlink:href="#K"/><use transform="matrix(0.010850694444444444,0,0,0.010850694444444444,93.34852430555557,0)" xlink:href="#L"/><use transform="matrix(0.010850694444444444,0,0,0.010850694444444444,106.6840277777778,0)" xlink:href="#M"/></g><path d="M621-530c0 421 127 700 301 955H641C466 173 344-110 344-531s122-702 297-953h281c-174 254-301 534-301 954" id="N"/><path d="M885-531c0 421-122 704-297 956H307c174-255 301-534 301-955 0-420-127-700-301-954h281c175 251 297 532 297 953" id="O"/><g id="o"><use transform="matrix(0.0087890625,0,0,0.0087890625,0,0)" xlink:href="#N"/><use transform="matrix(0.0087890625,0,0,0.0087890625,10.8017578125,0)" xlink:href="#B"/><use transform="matrix(0.0087890625,0,0,0.0087890625,21.603515625,0)" xlink:href="#t"/><use transform="matrix(0.0087890625,0,0,0.0087890625,32.4052734375,0)" xlink:href="#w"/><use transform="matrix(0.0087890625,0,0,0.0087890625,43.20703125,0)" xlink:href="#I"/><use transform="matrix(0.0087890625,0,0,0.0087890625,54.0087890625,0)" xlink:href="#L"/><use transform="matrix(0.0087890625,0,0,0.0087890625,64.810546875,0)" xlink:href="#O"/></g><path d="M711 13c-250 0-386-99-385-349l2-556H161v-190h181l88-282h176v282h385v190H606v530c-10 130 45 186 174 184 91-2 176-11 255-27v186C933-1 833 13 711 13" id="P"/><path d="M874 0L612-392 348 0H49l406-559-387-523h303l241 354 240-354h305L770-562 1179 0H874" id="Q"/><g id="p"><use transform="matrix(0.0087890625,0,0,0.0087890625,0,0)" xlink:href="#N"/><use transform="matrix(0.0087890625,0,0,0.0087890625,10.8017578125,0)" xlink:href="#P"/><use transform="matrix(0.0087890625,0,0,0.0087890625,21.603515625,0)" xlink:href="#L"/><use transform="matrix(0.0087890625,0,0,0.0087890625,32.4052734375,0)" xlink:href="#Q"/><use transform="matrix(0.0087890625,0,0,0.0087890625,43.20703125,0)" xlink:href="#P"/><use transform="matrix(0.0087890625,0,0,0.0087890625,54.0087890625,0)" xlink:href="#O"/></g></defs></g></svg>